<svg xmlns="http://www.w3.org/2000/svg" version="1.1" xmlns:xlink="http://www.w3.org/1999/xlink" xmlns:svgjs="http://svgjs.dev/svgjs" width="100%" height="100%" viewBox="0 0 1000 600"><rect width="1000" height="600" x="0" y="0" fill="#f4a950"/><g><rect width="333.3333333333333" height="333.3333333333333" rx="13.333333333333334" ry="13.333333333333334" y="145.93866800763456" fill="#161b21" transform="matrix(1.0103749257307006,0,0,1.0103749257307004,0,-15.848598188781466)" x="123.71645355224608"/><path d="M148.14295020315353 344.4639494408576Q158.09145179153916 343.27012925025133 163.47534676878308 339.8993428297159L163.47534676878308 339.8993428297159L163.47534676878308 245.86844664019836Q150.50718234533457 246.03230431341882 141.40137736208283 247.03885859177313L141.40137736208283 247.03885859177313Q138.3583062879884 251.25234161744234 136.76654603384668 256.7298695508123Q135.15137754067348 262.20739748418225 134.98751986745305 266.5847381830719L134.98751986745305 266.5847381830719Q133.81710791587824 266.74859585629235 131.4528757736972 266.74859585629235L131.4528757736972 266.74859585629235Q128.76092828507524 266.74859585629235 127.56710809446895 266.5847381830719L127.56710809446895 266.5847381830719L127.56710809446895 237.60533826208044Q150.8348976917755 238.2841771939938 170.73190086854675 238.2841771939938L170.73190086854675 238.2841771939938Q184.02778063843618 238.2841771939938 196.43414732512883 238.02668656464735Q208.81710577278994 237.7691959353009 214.0371430768135 237.60533826208044L214.0371430768135 237.60533826208044L214.0371430768135 266.5847381830719Q212.8667311252387 266.74859585629235 210.50249898305765 266.74859585629235L210.50249898305765 266.74859585629235Q207.97440916765612 266.74859585629235 206.6167313038294 266.5847381830719L206.6167313038294 266.5847381830719Q205.4463193522546 254.4592703647572 200.55399739467202 247.2027162649936L200.55399739467202 247.2027162649936Q189.59894152793214 246.03230431341882 178.31617031475128 245.86844664019836L178.31617031475128 245.86844664019836L178.31617031475128 339.8993428297159Q184.21504655068816 343.10627157703084 194.81897883195563 344.4639494408576L194.81897883195563 344.4639494408576L193.9762822268218 350.69054102323537L147.13639592479922 350.69054102323537L148.14295020315353 344.4639494408576ZM230.89107517949026 351.8609529748102Q220.45100057144322 351.8609529748102 214.71598200872683 346.8047733440071Q208.98096344601043 341.74859371320406 208.98096344601043 332.66619696898385L208.98096344601043 332.66619696898385Q208.98096344601043 321.7111411022439 217.08021415090792 315.3909165637401Q225.15605661677387 309.0706920252363 240.48845318240342 308.04072950785053L240.48845318240342 308.04072950785053L254.3227224500173 307.0341752294962L254.3227224500173 293.3871718741343Q254.3227224500173 284.96020582279596 250.78807835626145 281.0744381435677Q247.23002602347412 277.21207870337093 239.31804123082867 277.21207870337093L239.31804123082867 277.21207870337093Q232.5764683897579 277.21207870337093 228.94819133987613 279.22518726007945Q225.3199142899943 281.26170405581956 225.3199142899943 284.79634814957546L225.3199142899943 284.79634814957546Q225.3199142899943 289.1736888484651 230.37609392079736 291.0229397319532L230.37609392079736 291.0229397319532Q230.37609392079736 294.90870741118147 227.94163706152182 297.01544892401614Q225.50718020224627 299.1221904368507 220.7787159178842 299.1221904368507L220.7787159178842 299.1221904368507Q216.40137521899453 299.1221904368507 213.7094277303725 296.43024294822874Q210.99407200271907 293.7148872205752 210.99407200271907 289.33754652168557L210.99407200271907 289.33754652168557Q210.99407200271907 280.7467227971267 218.67197440504958 275.59691021019773Q226.34987680738016 270.4705058623001 239.31804123082867 270.4705058623001L239.31804123082867 270.4705058623001Q253.128902259411 270.4705058623001 260.9004376178675 276.5332397714575Q268.6485647372926 282.59597368061486 268.6485647372926 293.3871718741343L268.6485647372926 293.3871718741343L268.6485647372926 340.4143240884089Q270.1701002743398 341.58473603998357 273.54088669487516 342.94241390381035Q276.9116731154105 344.27668352860564 280.4463172091663 344.955522460519L280.4463172091663 344.955522460519L279.76747827725296 350.69054102323537L256.4996886799464 350.69054102323537L254.81429546967865 343.10627157703084Q249.59425816565522 347.9985935346134 243.85923960293877 349.9414773742275Q238.14762927925386 351.8609529748102 230.89107517949026 351.8609529748102L230.89107517949026 351.8609529748102ZM235.10455820515944 344.955522460519Q239.83302248952157 344.955522460519 244.37422086163167 342.6849232744639Q248.91541923374183 340.4143240884089 254.3227224500173 335.1942867843853L254.3227224500173 335.1942867843853L254.3227224500173 313.9396057437874L240.83957676787588 315.1334259343937Q232.9041837361989 315.81226486630703 228.36298536408873 320.0959726090707Q223.82178699197863 324.4030885908659 223.82178699197863 331.1446614319366L223.82178699197863 331.1446614319366Q223.82178699197863 344.955522460519 235.10455820515944 344.955522460519L235.10455820515944 344.955522460519ZM289.5521221924181 344.627807114078Q293.41448163261487 343.94896818216466 295.8723467309219 343.0126386209048Q298.30680359019743 342.0997172986765 300.67103573237847 340.2504664151884L300.67103573237847 340.2504664151884L300.67103573237847 292.2167599225595Q300.67103573237847 285.96676010115016 298.04931296085095 283.6961609150951Q295.450998428355 281.42556172904006 288.8732832605047 281.0744381435677L288.8732832605047 281.0744381435677L289.3648562801661 276.2055244250166Q294.60830182322115 275.1755619076308 304.3695374993548 272.1558990725679L304.3695374993548 272.1558990725679L309.9406983888507 270.4705058623001L312.96036122391365 271.9920413993474L314.4818967609608 282.43211600739437Q318.36766444018906 276.86095511789847 324.33676539322045 273.67743460961503Q330.3292745852833 270.4705058623001 336.7431320799131 270.4705058623001L336.7431320799131 270.4705058623001Q349.0324575714483 270.4705058623001 355.8676633686449 276.62687272758353Q362.6794609268102 282.75983135383535 362.6794609268102 293.7148872205752L362.6794609268102 293.7148872205752L362.6794609268102 340.2504664151884Q364.2009964638574 341.58473603998357 367.57178288439275 342.94241390381035Q370.94256930492804 344.27668352860564 374.47721339868394 344.955522460519L374.47721339868394 344.955522460519L373.821782705802 350.69054102323537L336.7431320799131 350.69054102323537L337.2347050995745 344.955522460519Q343.6485625942043 343.94896818216466 348.3536186395349 340.2504664151884L348.3536186395349 340.2504664151884L348.3536186395349 295.23642275762245Q348.3536186395349 278.5463483281661 333.8639186790391 278.5463483281661L333.8639186790391 278.5463483281661Q328.1289001163227 278.5463483281661 322.9088628122993 282.5257489635204Q317.6888255082757 286.4817413598431 314.99687801965376 292.708332942221L314.99687801965376 292.708332942221L314.99687801965376 340.2504664151884Q319.04650337210245 343.4339869234717 326.7946304915275 344.955522460519L326.7946304915275 344.955522460519L326.11579155961414 350.69054102323537L288.8732832605047 350.69054102323537L289.5521221924181 344.627807114078ZM417.4547402605097 387.6053339759038Q399.5942538794786 387.6053339759038 390.5820818523528 381.8703154131874Q381.56990982522706 376.13529685047104 381.56990982522706 366.3740611743374L381.56990982522706 366.3740611743374Q381.56990982522706 360.4751849384005 382.90417945002224 356.9171326056131Q384.261857313849 353.38248851185733 386.953804802471 351.01825636967635Q389.64575229109306 348.67743246652674 394.5380742486755 345.9620767388733L394.5380742486755 345.9620767388733Q390.83957248169935 341.74859371320406 390.83957248169935 334.67930552569237L390.83957248169935 334.67930552569237L404.65043351028163 324.89466161052735Q394.701931921896 322.55383770737774 389.22440398852603 315.718631910181Q383.7468760551562 308.88342611298435 383.7468760551562 298.77106685137824L383.7468760551562 298.77106685137824Q383.7468760551562 284.96020582279596 391.5184114136127 277.7972846791582Q399.2665385330377 270.6343635355206 414.59893509866725 270.6343635355206L414.59893509866725 270.6343635355206Q426.2328298973205 270.6343635355206 433.4659757580526 274.68398888796935L433.4659757580526 274.68398888796935Q439.55211790624156 272.8347380044812 439.55211790624156 268.10627372011913L439.55211790624156 268.10627372011913Q439.55211790624156 266.42088050985143 438.2880729985407 264.7354872995837Q437.02402809084 263.0500940893161 434.8236536218794 262.04353981096176L434.8236536218794 262.04353981096176Q434.8236536218794 259.5154499955603 436.93039513471405 257.9002815023871Q439.0371366475486 256.30852124824537 442.7356384145249 256.30852124824537L442.7356384145249 256.30852124824537Q446.62140609375314 256.30852124824537 448.8920052798082 258.5791204343004Q451.16260446586324 260.8497196203555 451.16260446586324 264.7354872995837L451.16260446586324 264.7354872995837Q451.16260446586324 269.7916669303868 448.1429416308004 273.5838016534891Q445.099870556706 277.3759363765913 439.3648519939896 279.38904493329994L439.3648519939896 279.38904493329994Q445.6148518153988 286.3178836866226 445.6148518153988 298.77106685137824L445.6148518153988 298.77106685137824Q445.6148518153988 311.24765825516545 437.2581104811549 318.57443707202344Q428.9247773859425 325.92462412791315 414.59893509866725 325.92462412791315L414.59893509866725 325.92462412791315L412.2347029564863 325.92462412791315L405.1654147689746 334.67930552569237Q405.49313011541545 337.20739534109396 407.7637293014706 338.2139496194483Q410.05773672655715 339.2205038978026 415.95661296249403 339.40776981005456L415.95661296249403 339.40776981005456L423.0259011500056 339.40776981005456Q438.52215538885565 339.40776981005456 445.87234244474536 346.3834250414402Q453.19912126160335 353.38248851185733 453.19912126160335 364.1736867053768L453.19912126160335 364.1736867053768Q453.19912126160335 375.4564579185577 444.3508069076981 381.54260006674645Q435.5024925537928 387.6053339759038 417.4547402605097 387.6053339759038L417.4547402605097 387.6053339759038ZM414.59893509866725 318.99578537459047Q422.8620434767851 318.99578537459047 426.5605452437615 314.1268716560394Q430.28245524976927 309.2345496984568 430.28245524976927 298.2794938317169L430.28245524976927 298.2794938317169Q430.28245524976927 287.32443796497694 426.5605452437615 282.33848305126844Q422.8620434767851 277.3759363765913 414.59893509866725 277.3759363765913L414.59893509866725 277.3759363765913Q406.3358267205493 277.3759363765913 402.637324953573 282.33848305126844Q398.91541494756524 287.32443796497694 398.91541494756524 298.2794938317169L398.91541494756524 298.2794938317169Q398.91541494756524 309.2345496984568 402.637324953573 314.1268716560394Q406.3358267205493 318.99578537459047 414.59893509866725 318.99578537459047L414.59893509866725 318.99578537459047ZM417.4547402605097 380.6999034616126Q437.6794587837218 380.6999034616126 437.6794587837218 364.1736867053768L437.6794587837218 364.1736867053768Q437.6794587837218 357.2682561910856 432.8807697822652 354.0613274437708Q428.08208078080867 350.85439869645586 418.97627579755687 350.85439869645586L418.97627579755687 350.85439869645586L404.65043351028163 350.85439869645586Q397.0661640640771 355.7467206540384 397.0661640640771 364.1736867053768L397.0661640640771 364.1736867053768Q397.0661640640771 372.43679508349476 402.28620136810065 376.55664515303795Q407.5296469111557 380.6999034616126 417.4547402605097 380.6999034616126L417.4547402605097 380.6999034616126Z " fill="#f4a950" transform="matrix(1.0103749257307006,0,0,1.0103749257307004,0,-15.848598188781466)"/><path d="M560.9589597246378 344.4639494408576Q570.9074613130233 343.27012925025133 576.2913562902673 339.8993428297159L576.2913562902673 339.8993428297159L576.2913562902673 245.86844664019836Q563.3231918668188 246.03230431341882 554.217386883567 247.03885859177313L554.217386883567 247.03885859177313Q551.1743158094727 251.25234161744234 549.5825555553309 256.7298695508123Q547.9673870621576 262.20739748418225 547.8035293889371 266.5847381830719L547.8035293889371 266.5847381830719Q546.6331174373624 266.74859585629235 544.2688852951813 266.74859585629235L544.2688852951813 266.74859585629235Q541.5769378065594 266.74859585629235 540.3831176159532 266.5847381830719L540.3831176159532 266.5847381830719L540.3831176159532 237.60533826208044Q563.6509072132598 238.2841771939938 583.5479103900309 238.2841771939938L583.5479103900309 238.2841771939938Q596.8437901599203 238.2841771939938 609.250156846613 238.02668656464735Q621.6331152942741 237.7691959353009 626.8531525982977 237.60533826208044L626.8531525982977 237.60533826208044L626.8531525982977 266.5847381830719Q625.6827406467229 266.74859585629235 623.3185085045418 266.74859585629235L623.3185085045418 266.74859585629235Q620.7904186891403 266.74859585629235 619.4327408253135 266.5847381830719L619.4327408253135 266.5847381830719Q618.2623288737387 254.4592703647572 613.3700069161563 247.2027162649936L613.3700069161563 247.2027162649936Q602.4149510494163 246.03230431341882 591.1321798362354 245.86844664019836L591.1321798362354 245.86844664019836L591.1321798362354 339.8993428297159Q597.0310560721724 343.10627157703084 607.6349883534398 344.4639494408576L607.6349883534398 344.4639494408576L606.792291748306 350.69054102323537L559.9524054462835 350.69054102323537L560.9589597246378 344.4639494408576ZM643.7070847009744 351.8609529748102Q633.2670100929274 351.8609529748102 627.531991530211 346.8047733440071Q621.7969729674946 341.74859371320406 621.7969729674946 332.66619696898385L621.7969729674946 332.66619696898385Q621.7969729674946 321.7111411022439 629.896223672392 315.3909165637401Q637.972066138258 309.0706920252363 653.3044627038877 308.04072950785053L653.3044627038877 308.04072950785053L667.1387319715014 307.0341752294962L667.1387319715014 293.3871718741343Q667.1387319715014 284.96020582279596 663.6040878777457 281.0744381435677Q660.0460355449583 277.21207870337093 652.1340507523129 277.21207870337093L652.1340507523129 277.21207870337093Q645.392477911242 277.21207870337093 641.7642008613603 279.22518726007945Q638.1359238114785 281.26170405581956 638.1359238114785 284.79634814957546L638.1359238114785 284.79634814957546Q638.1359238114785 289.1736888484651 643.1921034422816 291.0229397319532L643.1921034422816 291.0229397319532Q643.1921034422816 294.90870741118147 640.757646583006 297.01544892401614Q638.3231897237305 299.1221904368507 633.5947254393684 299.1221904368507L633.5947254393684 299.1221904368507Q629.2173847404787 299.1221904368507 626.5254372518567 296.43024294822874Q623.8100815242033 293.7148872205752 623.8100815242033 289.33754652168557L623.8100815242033 289.33754652168557Q623.8100815242033 280.7467227971267 631.4879839265337 275.59691021019773Q639.1658863288643 270.4705058623001 652.1340507523129 270.4705058623001L652.1340507523129 270.4705058623001Q665.9449117808952 270.4705058623001 673.7164471393518 276.5332397714575Q681.4645742587768 282.59597368061486 681.4645742587768 293.3871718741343L681.4645742587768 293.3871718741343L681.4645742587768 340.4143240884089Q682.986109795824 341.58473603998357 686.3568962163594 342.94241390381035Q689.7276826368947 344.27668352860564 693.2623267306504 344.955522460519L693.2623267306504 344.955522460519L692.5834877987371 350.69054102323537L669.3156982014306 350.69054102323537L667.6303049911629 343.10627157703084Q662.4102676871394 347.9985935346134 656.675249124423 349.9414773742275Q650.9636388007381 351.8609529748102 643.7070847009744 351.8609529748102L643.7070847009744 351.8609529748102ZM647.9205677266436 344.955522460519Q652.6490320110057 344.955522460519 657.1902303831158 342.6849232744639Q661.731428755226 340.4143240884089 667.1387319715014 335.1942867843853L667.1387319715014 335.1942867843853L667.1387319715014 313.9396057437874L653.65558628936 315.1334259343937Q645.720193257683 315.81226486630703 641.1789948855729 320.0959726090707Q636.6377965134628 324.4030885908659 636.6377965134628 331.1446614319366L636.6377965134628 331.1446614319366Q636.6377965134628 344.955522460519 647.9205677266436 344.955522460519L647.9205677266436 344.955522460519ZM702.3681317139022 344.627807114078Q706.230491154099 343.94896818216466 708.688356252406 343.0126386209048Q711.1228131116816 342.0997172986765 713.4870452538627 340.2504664151884L713.4870452538627 340.2504664151884L713.4870452538627 292.2167599225595Q713.4870452538627 285.96676010115016 710.8653224823352 283.6961609150951Q708.2670079498391 281.42556172904006 701.6892927819889 281.0744381435677L701.6892927819889 281.0744381435677L702.1808658016503 276.2055244250166Q707.4243113447053 275.1755619076308 717.185547020839 272.1558990725679L717.185547020839 272.1558990725679L722.7567079103349 270.4705058623001L725.7763707453978 271.9920413993474L727.2979062824451 282.43211600739437Q731.1836739616732 276.86095511789847 737.1527749147047 273.67743460961503Q743.1452841067675 270.4705058623001 749.5591416013973 270.4705058623001L749.5591416013973 270.4705058623001Q761.8484670929324 270.4705058623001 768.6836728901291 276.62687272758353Q775.4954704482943 282.75983135383535 775.4954704482943 293.7148872205752L775.4954704482943 293.7148872205752L775.4954704482943 340.2504664151884Q777.0170059853416 341.58473603998357 780.3877924058769 342.94241390381035Q783.7585788264122 344.27668352860564 787.2932229201681 344.955522460519L787.2932229201681 344.955522460519L786.6377922272862 350.69054102323537L749.5591416013973 350.69054102323537L750.0507146210587 344.955522460519Q756.4645721156885 343.94896818216466 761.1696281610191 340.2504664151884L761.1696281610191 340.2504664151884L761.1696281610191 295.23642275762245Q761.1696281610191 278.5463483281661 746.6799282005232 278.5463483281661L746.6799282005232 278.5463483281661Q740.944909637807 278.5463483281661 735.7248723337834 282.5257489635204Q730.5048350297599 286.4817413598431 727.8128875411379 292.708332942221L727.8128875411379 292.708332942221L727.8128875411379 340.2504664151884Q731.8625128935867 343.4339869234717 739.6106400130117 344.955522460519L739.6106400130117 344.955522460519L738.9318010810983 350.69054102323537L701.6892927819889 350.69054102323537L702.3681317139022 344.627807114078ZM830.2707497819939 387.6053339759038Q812.4102634009628 387.6053339759038 803.398091373837 381.8703154131874Q794.3859193467113 376.13529685047104 794.3859193467113 366.3740611743374L794.3859193467113 366.3740611743374Q794.3859193467113 360.4751849384005 795.7201889715064 356.9171326056131Q797.0778668353332 353.38248851185733 799.7698143239552 351.01825636967635Q802.4617618125773 348.67743246652674 807.3540837701597 345.9620767388733L807.3540837701597 345.9620767388733Q803.6555820031834 341.74859371320406 803.6555820031834 334.67930552569237L803.6555820031834 334.67930552569237L817.4664430317658 324.89466161052735Q807.5179414433802 322.55383770737774 802.0404135100102 315.718631910181Q796.5628855766403 308.88342611298435 796.5628855766403 298.77106685137824L796.5628855766403 298.77106685137824Q796.5628855766403 284.96020582279596 804.3344209350968 277.7972846791582Q812.0825480545219 270.6343635355206 827.4149446201515 270.6343635355206L827.4149446201515 270.6343635355206Q839.0488394188047 270.6343635355206 846.2819852795368 274.68398888796935L846.2819852795368 274.68398888796935Q852.3681274277257 272.8347380044812 852.3681274277257 268.10627372011913L852.3681274277257 268.10627372011913Q852.3681274277257 266.42088050985143 851.1040825200249 264.7354872995837Q849.8400376123242 263.0500940893161 847.6396631433636 262.04353981096176L847.6396631433636 262.04353981096176Q847.6396631433636 259.5154499955603 849.7464046561983 257.9002815023871Q851.8531461690328 256.30852124824537 855.5516479360091 256.30852124824537L855.5516479360091 256.30852124824537Q859.4374156152372 256.30852124824537 861.7080148012924 258.5791204343004Q863.9786139873474 260.8497196203555 863.9786139873474 264.7354872995837L863.9786139873474 264.7354872995837Q863.9786139873474 269.7916669303868 860.9589511522846 273.5838016534891Q857.9158800781901 277.3759363765913 852.1808615154738 279.38904493329994L852.1808615154738 279.38904493329994Q858.4308613368829 286.3178836866226 858.4308613368829 298.77106685137824L858.4308613368829 298.77106685137824Q858.4308613368829 311.24765825516545 850.0741200026391 318.57443707202344Q841.7407869074267 325.92462412791315 827.4149446201515 325.92462412791315L827.4149446201515 325.92462412791315L825.0507124779705 325.92462412791315L817.9814242904587 334.67930552569237Q818.3091396368997 337.20739534109396 820.5797388229547 338.2139496194483Q822.8737462480414 339.2205038978026 828.7726224839781 339.40776981005456L828.7726224839781 339.40776981005456L835.8419106714898 339.40776981005456Q851.3381649103399 339.40776981005456 858.6883519662296 346.3834250414402Q866.0151307830876 353.38248851185733 866.0151307830876 364.1736867053768L866.0151307830876 364.1736867053768Q866.0151307830876 375.4564579185577 857.1668164291822 381.54260006674645Q848.318502075277 387.6053339759038 830.2707497819939 387.6053339759038L830.2707497819939 387.6053339759038ZM827.4149446201515 318.99578537459047Q835.6780529982693 318.99578537459047 839.3765547652457 314.1268716560394Q843.0984647712534 309.2345496984568 843.0984647712534 298.2794938317169L843.0984647712534 298.2794938317169Q843.0984647712534 287.32443796497694 839.3765547652457 282.33848305126844Q835.6780529982693 277.3759363765913 827.4149446201515 277.3759363765913L827.4149446201515 277.3759363765913Q819.1518362420335 277.3759363765913 815.4533344750572 282.33848305126844Q811.7314244690494 287.32443796497694 811.7314244690494 298.2794938317169L811.7314244690494 298.2794938317169Q811.7314244690494 309.2345496984568 815.4533344750572 314.1268716560394Q819.1518362420335 318.99578537459047 827.4149446201515 318.99578537459047L827.4149446201515 318.99578537459047ZM830.2707497819939 380.6999034616126Q850.495468305206 380.6999034616126 850.495468305206 364.1736867053768L850.495468305206 364.1736867053768Q850.495468305206 357.2682561910856 845.6967793037494 354.0613274437708Q840.8980903022929 350.85439869645586 831.7922853190411 350.85439869645586L831.7922853190411 350.85439869645586L817.4664430317658 350.85439869645586Q809.8821735855612 355.7467206540384 809.8821735855612 364.1736867053768L809.8821735855612 364.1736867053768Q809.8821735855612 372.43679508349476 815.1022108895849 376.55664515303795Q820.3456564326399 380.6999034616126 830.2707497819939 380.6999034616126L830.2707497819939 380.6999034616126Z " fill="#161b21" transform="matrix(1.0103749257307006,0,0,1.0103749257307004,0,-15.848598188781466)"/></g></svg>